<?xml version="1.0" encoding="utf-8"?>
<!-- Generator: Adobe Illustrator 19.0.0, SVG Export Plug-In . SVG Version: 6.00 Build 0)  -->
<svg version="1.1" id="bayangan" xmlns="http://www.w3.org/2000/svg" xmlns:xlink="http://www.w3.org/1999/xlink" x="0px" y="0px"
	 viewBox="0 0 2200 2000" style="enable-background:new 0 0 2200 2000;" xml:space="preserve">
<style type="text/css">
	.st0{fill:url(#SVGID_1_);}
	.st1{fill:url(#SVGID_2_);}
	.st2{fill:url(#SVGID_3_);}
	.st3{fill:url(#SVGID_4_);}
	.st4{fill:url(#SVGID_5_);}
	.st5{fill:url(#SVGID_6_);}
	.st6{fill:url(#SVGID_7_);}
	.st7{fill:url(#SVGID_8_);}
	.st8{fill:url(#SVGID_9_);}
	.st9{fill:url(#SVGID_10_);}
</style>
<g>
	<g>
		<linearGradient id="SVGID_1_" gradientUnits="userSpaceOnUse" x1="516.9081" y1="999.6337" x2="1135.4706" y2="999.6337">
			<stop  offset="0" style="stop-color:#3C3C3C"/>
			<stop  offset="1" style="stop-color:#C3C3C3"/>
		</linearGradient>
		<path class="st0" d="M1111.1,879c-16.3-37.5-38.4-70.2-66.4-97.9c-28-27.7-60.8-49.7-98.3-66c-37.5-16.2-77.6-24.4-120.2-24.4
			c-42.6,0-82.7,8.1-120.2,24.4c-37.5,16.3-70.3,38.2-98.3,66c-28,27.7-50.2,60.4-66.4,97.9c-16.3,37.5-24.4,77.6-24.4,120.2
			c0,43.2,8.1,83.5,24.4,121c16.2,37.5,38.4,70.2,66.4,97.9c28,27.7,60.8,49.7,98.3,66c37.5,16.3,77.6,24.4,120.2,24.4
			c42.6,0,82.6-8.1,120.2-24.4c37.5-16.2,70.3-38.2,98.3-66c28-27.7,50.1-60.4,66.4-97.9c16.2-37.5,24.4-77.9,24.4-121
			C1135.5,956.6,1127.3,916.6,1111.1,879z M826.2,1246.3c-136.2,0-246.7-110.4-246.7-246.7c0-136.2,110.4-246.7,246.7-246.7
			c136.2,0,246.7,110.4,246.7,246.7C1072.9,1135.9,962.4,1246.3,826.2,1246.3z"/>
		<linearGradient id="SVGID_2_" gradientUnits="userSpaceOnUse" x1="1072.8842" y1="999.6337" x2="579.495" y2="999.6337">
			<stop  offset="0" style="stop-color:#3C3C3C"/>
			<stop  offset="1" style="stop-color:#9F9F9F"/>
		</linearGradient>
		<path class="st1" d="M826.2,752.9c-136.2,0-246.7,110.4-246.7,246.7c0,136.2,110.4,246.7,246.7,246.7
			c136.2,0,246.7-110.4,246.7-246.7C1072.9,863.4,962.4,752.9,826.2,752.9z M984.2,1065.7c-9,20.9-21.2,39.2-36.6,54.8
			c-15.4,15.6-33.6,27.9-54.6,36.8c-21,8.9-43.3,13.4-66.8,13.4c-23.5,0-45.8-4.5-66.8-13.4c-21-8.9-39.2-21.2-54.6-36.8
			c-15.4-15.6-27.6-33.9-36.6-54.8c-9-20.9-13.4-43.1-13.4-66.5c0-23.4,4.5-45.4,13.4-66.1c9-20.6,21.1-38.8,36.6-54.4
			c15.4-15.6,33.6-27.9,54.6-36.8c21-8.9,43.3-13.4,66.8-13.4c23.5,0,45.8,4.5,66.8,13.4c21,8.9,39.2,21.2,54.6,36.8
			c15.4,15.6,27.6,33.7,36.6,54.4c9,20.6,13.4,42.7,13.4,66.1C997.6,1022.6,993.1,1044.8,984.2,1065.7z"/>
	</g>
	<g>
		<linearGradient id="SVGID_3_" gradientUnits="userSpaceOnUse" x1="1092.0785" y1="611.9577" x2="1546.0338" y2="1381.3369">
			<stop  offset="8.522196e-008" style="stop-color:#3C3C3C"/>
			<stop  offset="1" style="stop-color:#C3C3C3"/>
		</linearGradient>
		<polygon class="st2" points="1056.4,691.2 1489.6,1308.1 1585.3,1308.1 1152.7,691.2 		"/>
		<linearGradient id="SVGID_4_" gradientUnits="userSpaceOnUse" x1="1617.1777" y1="1356.8195" x2="1228.0511" y2="659.3678">
			<stop  offset="8.522196e-008" style="stop-color:#3C3C3C"/>
			<stop  offset="1" style="stop-color:#C3C3C3"/>
		</linearGradient>
		<polygon class="st3" points="1467,999.6 1467,999.6 1369.5,860.5 1369.2,861 1250.9,691.2 1152.7,691.2 1585.3,1308.1 
			1683.1,1308.1 		"/>
		<linearGradient id="SVGID_5_" gradientUnits="userSpaceOnUse" x1="1204.3231" y1="1328.7908" x2="1567.0818" y2="653.8902">
			<stop  offset="8.522196e-008" style="stop-color:#3C3C3C"/>
			<stop  offset="1" style="stop-color:#C3C3C3"/>
		</linearGradient>
		<polygon class="st4" points="1153.3,1308.1 1249.8,1308.1 1369.5,1137.1 1321.3,1068.4 		"/>
		<linearGradient id="SVGID_6_" gradientUnits="userSpaceOnUse" x1="1493.6943" y1="661.53" x2="1113.1378" y2="1319.0477">
			<stop  offset="0" style="stop-color:#3C3C3C"/>
			<stop  offset="1" style="stop-color:#C3C3C3"/>
		</linearGradient>
		<polygon class="st5" points="1272.7,999.3 1056.4,1308.1 1153.3,1308.1 1321.3,1068.4 		"/>
		<linearGradient id="SVGID_7_" gradientUnits="userSpaceOnUse" x1="1534.1115" y1="678.2519" x2="1154.0012" y2="1334.9984">
			<stop  offset="8.522196e-008" style="stop-color:#3C3C3C"/>
			<stop  offset="1" style="stop-color:#C3C3C3"/>
		</linearGradient>
		<polygon class="st6" points="1488.6,691.2 1369.5,860.5 1418.3,930.1 1585.7,691.2 		"/>
		<linearGradient id="SVGID_8_" gradientUnits="userSpaceOnUse" x1="1260.0258" y1="1351.3905" x2="1622.1887" y2="677.5983">
			<stop  offset="8.522196e-008" style="stop-color:#3C3C3C"/>
			<stop  offset="1" style="stop-color:#C3C3C3"/>
		</linearGradient>
		<polygon class="st7" points="1683.1,691.2 1585.7,691.2 1418.3,930.1 1467,999.6 		"/>
		
			<linearGradient id="SVGID_9_" gradientUnits="userSpaceOnUse" x1="10982.8633" y1="-251.8736" x2="10852.1973" y2="-281.8639" gradientTransform="matrix(-0.9612 0.2757 0.2757 0.9612 11902.4668 -1680.651)">
			<stop  offset="0" style="stop-color:#FFFFFF"/>
			<stop  offset="0.1043" style="stop-color:#FCFCFC"/>
			<stop  offset="0.18" style="stop-color:#F3F3F3"/>
			<stop  offset="0.2467" style="stop-color:#E3E3E3"/>
			<stop  offset="0.3082" style="stop-color:#CCCCCC"/>
			<stop  offset="0.3661" style="stop-color:#B0B0B0"/>
			<stop  offset="0.4213" style="stop-color:#8C8C8C"/>
			<stop  offset="0.4744" style="stop-color:#626262"/>
			<stop  offset="0.5246" style="stop-color:#323232"/>
			<stop  offset="0.5701" style="stop-color:#000000"/>
		</linearGradient>
		<polygon class="st8" points="1341.5,1177.1 1246.2,1037.1 1272.7,999.3 1369.5,1137.1 		"/>
		
			<linearGradient id="SVGID_10_" gradientUnits="userSpaceOnUse" x1="1521.1355" y1="6493.1362" x2="1390.4698" y2="6463.1455" gradientTransform="matrix(0.9612 -0.2757 -0.2757 -0.9612 1790.7764 7553.8906)">
			<stop  offset="0" style="stop-color:#FFFFFF"/>
			<stop  offset="0.1043" style="stop-color:#FCFCFC"/>
			<stop  offset="0.18" style="stop-color:#F3F3F3"/>
			<stop  offset="0.2467" style="stop-color:#E3E3E3"/>
			<stop  offset="0.3082" style="stop-color:#CCCCCC"/>
			<stop  offset="0.3661" style="stop-color:#B0B0B0"/>
			<stop  offset="0.4213" style="stop-color:#8C8C8C"/>
			<stop  offset="0.4744" style="stop-color:#626262"/>
			<stop  offset="0.5246" style="stop-color:#323232"/>
			<stop  offset="0.5701" style="stop-color:#000000"/>
		</linearGradient>
		<polygon class="st9" points="1397.6,821.4 1492.8,961.4 1466.3,999.3 1369.5,861.5 		"/>
	</g>
</g>
</svg>
