<?xml version="1.0" encoding="utf-8"?>
<!-- Generator: Adobe Illustrator 19.0.0, SVG Export Plug-In . SVG Version: 6.00 Build 0)  -->
<svg version="1.1" id="GRT" xmlns="http://www.w3.org/2000/svg" xmlns:xlink="http://www.w3.org/1999/xlink" x="0px" y="0px"
	 viewBox="-431 233 96 96" style="enable-background:new -431 233 96 96;" xml:space="preserve">
<style type="text/css">
	.st0{fill:#6747ED;}
</style>
<path id="Fill-19" class="st0" d="M-365.4,294.6c1.3,1.3,1.3,3.3,0,4.5l-12.8,12.8c-1.3,1.3-3.3,1.3-4.5,0c-1.3-1.3-1.3-3.3,0-4.5
	l12.8-12.8C-368.7,293.3-366.6,293.3-365.4,294.6z M-358,258.4c0,1.8-1.4,3.2-3.2,3.2c-1.8,0-3.2-1.4-3.2-3.2c0-1.8,1.4-3.2,3.2-3.2
	C-359.5,255.2-358,256.6-358,258.4z"/>
<g>
	<path class="st0" d="M-383.6,262.2c6.7,0,12.2,5.5,12.2,12.2c0,6.7-5.5,12.2-12.2,12.2s-12.2-5.5-12.2-12.2
		C-395.9,267.7-390.4,262.2-383.6,262.2 M-383.6,255.2c-10.6,0-19.2,8.6-19.2,19.2s8.6,19.2,19.2,19.2s19.2-8.6,19.2-19.2
		S-373,255.2-383.6,255.2L-383.6,255.2z"/>
</g>
</svg>
